<?xml version="1.0" encoding="UTF-8"?>
<svg version="1.1" xmlns="http://www.w3.org/2000/svg" width="512" height="512">
<path d="M0 0 C1.17034814 -0.0060911 2.34069627 -0.01218221 3.5465095 -0.01845789 C6.7776225 -0.0321809 10.00841078 -0.03255297 13.23953795 -0.02708292 C16.73116882 -0.02440457 20.22273555 -0.03895969 23.71434021 -0.05117798 C30.54864047 -0.07220126 37.38285585 -0.07677458 44.21718463 -0.07499009 C49.77515859 -0.07368074 55.33310614 -0.07749545 60.89107513 -0.08491516 C62.49411861 -0.08701444 64.09716209 -0.08911204 65.70020556 -0.09120798 C66.89716658 -0.09277327 66.89716658 -0.09277327 68.11830863 -0.09437019 C83.20046275 -0.11326053 98.28256821 -0.11222625 113.36472926 -0.10540086 C127.14605805 -0.09982802 140.92720079 -0.12064188 154.70848611 -0.15376133 C168.87464878 -0.18754019 183.04072243 -0.20266133 197.20692611 -0.1980443 C205.15389122 -0.19580362 213.10068445 -0.2009836 221.04761505 -0.22593689 C227.81446257 -0.24700449 234.58104398 -0.25048834 241.34790263 -0.2316373 C244.79662685 -0.22251225 248.24485567 -0.2212356 251.69354057 -0.24199295 C255.44221966 -0.26022274 259.18959193 -0.24740573 262.93823242 -0.22705078 C264.01452353 -0.23956863 265.09081463 -0.25208648 266.19972062 -0.26498365 C275.96640565 -0.15180042 285.50048704 2.80621354 292.699646 9.67175293 C300.37632506 18.35230541 303.70516918 27.30824 303.58384705 38.82875061 C303.58641032 39.73482195 303.58897359 40.6408933 303.59161454 41.57442135 C303.59652538 44.58694985 303.58010426 47.59896847 303.56365967 50.6114502 C303.56281281 52.78023771 303.56328968 54.94902609 303.56498718 57.11781311 C303.56584627 62.98906956 303.54823432 68.86014133 303.52726531 74.73135495 C303.50848421 80.8732568 303.50674693 87.0151631 303.50318909 93.15708923 C303.49387285 104.78035071 303.4692647 116.40352732 303.43914062 128.02675146 C303.40558355 141.26248842 303.3891073 154.49822949 303.37405431 167.73399842 C303.34271483 194.95418235 303.28996246 222.174291 303.2230835 249.39440918 C301.00294398 247.17426966 300.50710214 245.69912868 299.4730835 242.76940918 C295.67361684 233.14594255 290.47851934 228.00012527 281.2230835 223.39440918 C279.55968683 222.71962496 277.89341699 222.05183464 276.2230835 221.39440918 C276.22069514 220.44649946 276.21830679 219.49858974 276.21584606 218.52195549 C276.1570632 195.46198639 276.08118787 172.40212188 275.98736858 149.34226799 C275.94239446 138.19071268 275.90298349 127.03918943 275.87664795 115.88757324 C275.85368101 106.16833391 275.82029751 96.44919587 275.77438194 86.73003685 C275.7504322 81.58335433 275.73171487 76.43677224 275.72546959 71.29003525 C275.7194267 66.44568023 275.69945551 61.60158223 275.66880798 56.75732231 C275.66001502 54.97959744 275.65630778 53.20183899 275.65807533 51.42409325 C275.65972757 48.99551555 275.64303359 46.56772184 275.62181091 44.13925171 C275.62665849 43.43690332 275.63150607 42.73455494 275.63650054 42.01092327 C275.5705419 37.43276265 274.79933518 34.20053075 272.2230835 30.39440918 C268.86355887 28.7230032 266.12223334 28.14388554 262.39229679 28.13993359 C261.44204154 28.13410139 260.49178629 28.1282692 259.51273543 28.12226027 C258.47694536 28.1260396 257.4411553 28.12981892 256.37397766 28.13371277 C255.26729624 28.12988722 254.16061482 28.12606167 253.0203976 28.1221202 C249.30478978 28.11178517 245.58933634 28.11578336 241.87371826 28.11975098 C239.21279384 28.1154048 236.55188082 28.1102866 233.89096069 28.10426331 C227.40919668 28.09151236 220.92747408 28.08972309 214.44569964 28.09206357 C209.17746325 28.09384638 203.90923944 28.09209788 198.64100456 28.08783913 C197.89129145 28.08724394 197.14157834 28.08664875 196.36914666 28.08603552 C194.84612171 28.08482378 193.32309677 28.08360964 191.80007183 28.08239315 C177.51643814 28.07151616 163.23282807 28.0736809 148.94919305 28.07977799 C135.88145133 28.08494776 122.81378414 28.07369044 109.74605716 28.05467977 C96.32809559 28.03530922 82.91016929 28.02704397 69.49219364 28.03080302 C61.95901502 28.0327162 54.42589984 28.03021615 46.89273262 28.01608849 C40.47995883 28.00418371 34.06728753 28.00275963 27.65451235 28.01487865 C24.38285148 28.02077366 21.1114172 28.02022679 17.83976173 28.00987625 C14.29272374 27.99946226 10.74619243 28.00746696 7.19917297 28.02018738 C5.64883396 28.00912595 5.64883396 28.00912595 4.06717497 27.99784106 C-1.18983106 28.03760002 -5.42624523 28.09151051 -9.7769165 31.39440918 C-11.52181161 35.57696297 -12.02774856 39.14971346 -12.0313921 43.65730953 C-12.03722429 44.90154436 -12.04305648 46.14577919 -12.04906541 47.4277181 C-12.04543257 48.80048099 -12.04160822 50.17324337 -12.03761292 51.54600525 C-12.04063432 53.01050084 -12.04452374 54.47499486 -12.04920548 55.93948609 C-12.05949562 59.96000161 -12.05730108 63.98042807 -12.05302489 68.00095093 C-12.05055953 72.33845301 -12.05956944 76.67593353 -12.06706238 81.01342773 C-12.07981645 89.50936638 -12.08160221 98.00527343 -12.07926212 106.50122004 C-12.07747968 113.40605541 -12.079227 120.31088119 -12.08348656 127.21571541 C-12.08408175 128.19813465 -12.08467694 129.18055389 -12.08529016 130.19274341 C-12.0865019 132.18846909 -12.08771603 134.18419477 -12.08893254 136.17992044 C-12.09981069 154.89869202 -12.09764421 173.61744559 -12.09154769 192.33621819 C-12.08637764 209.46419233 -12.09763582 226.59210961 -12.11664591 243.7200725 C-12.13601304 261.30442461 -12.14428233 278.8887498 -12.14052266 296.47311264 C-12.13860899 306.34647337 -12.14111437 316.2197857 -12.1552372 326.09313774 C-12.16713759 334.49786908 -12.16857093 342.90252222 -12.15644703 351.3072546 C-12.15054906 355.59570364 -12.14948423 359.88400953 -12.16144943 364.17244911 C-12.1722767 368.09864849 -12.16924268 372.02458467 -12.15518775 375.95077158 C-12.15253211 377.37062649 -12.15493453 378.79050182 -12.16292361 380.21033674 C-12.29862127 390.23154392 -12.29862127 390.23154392 -8.7769165 399.39440918 C-5.38937611 402.25270575 -0.99731032 401.65869999 3.22943115 401.61804199 C4.03325226 401.61844986 4.83707336 401.61885773 5.66525269 401.61927795 C7.40910894 401.61947532 9.15296966 401.6154423 10.89680862 401.60767365 C13.66403323 401.59743469 16.43080826 401.60284171 19.19802856 401.61309814 C27.06534664 401.64104139 34.93241404 401.65365967 42.79974365 401.62438965 C47.61571507 401.60759585 52.43088461 401.62007964 57.24677658 401.65084076 C59.07504316 401.6569188 60.90338139 401.65214554 62.73158646 401.63596344 C73.17699733 401.54741336 80.70623684 401.66892112 89.2230835 408.39440918 C90.87847892 409.41295901 92.54264472 410.41772945 94.2230835 411.39440918 C90.19149816 419.57695338 85.83468315 426.47989721 77.2230835 430.39440918 C64.92633397 433.34899611 51.28492908 431.95899378 38.76391602 431.54095459 C34.95677178 431.42881449 31.15007908 431.38055971 27.34163189 431.33585453 C-17.36767328 430.8094971 -17.36767328 430.8094971 -29.33551025 420.03503418 C-36.11113226 412.3229441 -40.01893664 404.11037073 -40.03697872 393.77254963 C-40.04404431 392.47367292 -40.0511099 391.17479621 -40.0583896 389.83655959 C-40.05613856 388.4073002 -40.0536921 386.97804111 -40.05107117 385.54878235 C-40.05552617 384.02098968 -40.06084108 382.49319931 -40.06693989 380.96541232 C-40.08109881 376.77439337 -40.08278358 372.58344865 -40.08234298 368.39240921 C-40.08399305 363.86940919 -40.09706309 359.3464396 -40.10853577 354.82345581 C-40.13136996 344.93701668 -40.13930463 335.05059905 -40.14436221 325.16413713 C-40.14762097 318.98875691 -40.15414452 312.81338291 -40.1613636 306.63800621 C-40.18092721 289.53335807 -40.19733291 272.42871572 -40.20024014 255.32405567 C-40.20042771 254.22983649 -40.20061527 253.13561731 -40.20080853 252.00823997 C-40.20117477 249.790084 -40.20153847 247.57192804 -40.20189964 245.35377208 C-40.20208245 244.25270723 -40.20226526 243.15164237 -40.20245361 242.01721191 C-40.20263416 240.91480007 -40.20281471 239.81238823 -40.20300073 238.67656996 C-40.20654214 220.81482178 -40.23356358 202.95319417 -40.2709515 185.0914878 C-40.30904766 166.74432045 -40.32839771 148.39721292 -40.32869965 130.05000514 C-40.32928391 119.75224325 -40.33775591 109.45462522 -40.36669731 99.15690041 C-40.39122862 90.38815677 -40.39848221 81.61960947 -40.38344979 72.85084078 C-40.37628816 68.37939845 -40.37710599 63.90834367 -40.39986038 59.43694496 C-40.42052063 55.33767936 -40.41778494 51.23909755 -40.39698554 47.13983878 C-40.39350405 45.66271933 -40.39834347 44.18554983 -40.41268998 42.70849595 C-40.51545868 31.39189848 -38.44561499 21.11393805 -31.347229 11.98425293 C-22.24613197 2.76995817 -12.55253642 -0.06162746 0 0 Z " fill="#030104" transform="translate(106.77691650390625,-0.3944091796875)"/>
<path d="M0 0 C1.85613285 1.49292197 3.69181424 3.01185194 5.5 4.5625 C6.22574219 5.17609375 6.95148438 5.7896875 7.69921875 6.421875 C21.89122287 19.4707118 29.43174269 38.63616497 30.78515625 57.546875 C31.54182455 79.66528573 23.69881824 98.1199245 9.65234375 114.75 C-3.48896386 128.66798064 -22.82426709 136.57325472 -41.71875 137.765625 C-64.35469068 138.08899558 -84.04045519 130.51005001 -100.4375 115.0625 C-115.65617298 98.65845299 -122.4448583 77.78114622 -121.63183594 55.66894531 C-120.41523324 36.23033771 -111.13048352 18.01281888 -97.0703125 4.6875 C-69.20424027 -18.35071169 -29.72845927 -21.65129298 0 0 Z " fill="#030104" transform="translate(356.5,278.4375)"/>
<path d="M0 0 C2.34594727 2.05297852 2.34594727 2.05297852 4.56640625 4.37890625 C5.7894043 5.63670898 5.7894043 5.63670898 7.03710938 6.91992188 C7.87048828 7.79197266 8.70386719 8.66402344 9.5625 9.5625 C11.22321945 11.29992705 12.89094621 13.03068963 14.56640625 14.75390625 C15.66384155 15.90354858 15.66384155 15.90354858 16.78344727 17.07641602 C19.89723092 19.77864109 22.56814319 20.975062 26.69140625 21.046875 C27.63886719 20.94890625 28.58632813 20.8509375 29.5625 20.75 C30.614375 20.64300781 31.66625 20.53601563 32.75 20.42578125 C35.87594151 20.01625285 38.96064122 19.49890413 42.0625 18.9375 C55.94218467 16.5544873 55.94218467 16.5544873 62.4375 19.625 C69.14006309 25.83713164 69.88714398 31.5339772 71 40.375 C71.99538416 51.43295325 71.99538416 51.43295325 77 61 C80.57588071 63.47765357 84.37210753 65.29878438 88.3125 67.125 C104.56102602 74.86434846 104.56102602 74.86434846 108.4375 81.4375 C110.29012383 89.87723079 107.42061268 95.17693141 103.625 102.6875 C103.11710938 103.71939453 102.60921875 104.75128906 102.0859375 105.81445312 C98.39548916 113.29732271 98.39548916 113.29732271 96.83544922 116.0690918 C95.2488309 119.73611817 96.05416972 123.21812954 97 127 C98.57625522 130.77493632 100.50067352 134.30945051 102.5 137.875 C103.51201584 139.72568892 104.52250385 141.57721436 105.53125 143.4296875 C105.98048828 144.23647949 106.42972656 145.04327148 106.89257812 145.87451172 C109.13648489 150.18126928 109.59012321 154.22616748 109 159 C105.75526452 167.55430263 98.46336984 170.22861113 90.70703125 174.19921875 C89.95252686 174.58932129 89.19802246 174.97942383 88.4206543 175.38134766 C86.91671924 176.15514727 85.40658365 176.91703906 83.88989258 177.66552734 C83.18630615 178.02469238 82.48271973 178.38385742 81.7578125 178.75390625 C81.1302002 179.06658447 80.50258789 179.3792627 79.85595703 179.70141602 C76.25183468 182.22316382 74.30239512 184.86887401 73.16625977 189.11865234 C73.00955811 190.26285645 72.85285645 191.40706055 72.69140625 192.5859375 C72.50126953 193.84664062 72.31113281 195.10734375 72.11523438 196.40625 C71.74358104 199.04332745 71.38329292 201.68185306 71.02148438 204.3203125 C69.09672013 217.0224604 69.09672013 217.0224604 64 222 C58.5223168 225.35362294 53.53489301 225.24710498 47.375 224.25 C46.65054688 224.14945313 45.92609375 224.04890625 45.1796875 223.9453125 C42.04648808 223.5025778 38.93063508 222.98801415 35.8125 222.44921875 C29.52493017 221.44495412 23.36238107 220.46864548 17.9375 224.375 C16.58906131 225.54309195 15.27974545 226.75702885 14 228 C13.16210938 228.80824219 12.32421875 229.61648438 11.4609375 230.44921875 C8.05426253 233.81067237 4.72719509 237.24542558 1.40625 240.69140625 C-2.67740977 244.60933308 -6.29790878 245.97298268 -11.9375 246.0625 C-19.51318894 244.68776108 -24.42263851 238.73032976 -29.1328125 233.09765625 C-35.48013249 225.67076129 -35.48013249 225.67076129 -43.96875 221.796875 C-50.97022618 221.66721803 -57.5282741 222.62271602 -64.36523438 224.02050781 C-71.07631747 225.30149843 -77.21035127 225.44648453 -83.375 222.25 C-87.83042693 218.43106263 -89.3175421 214.78552605 -90.0625 209.03515625 C-90.21976563 207.90529297 -90.37703125 206.77542969 -90.5390625 205.61132812 C-90.69117188 204.44021484 -90.84328125 203.26910156 -91 202.0625 C-92.12199391 190.51130422 -92.12199391 190.51130422 -98.0625 180.9375 C-102.1865919 178.21735428 -106.54822448 176.12911003 -111 174 C-126.17021277 166.74468085 -126.17021277 166.74468085 -129 159 C-129.52669025 152.57843044 -128.39910298 148.75961616 -125.3125 143.1875 C-124.5782213 141.78839258 -123.84515179 140.38864988 -123.11328125 138.98828125 C-122.5730835 137.97241943 -122.5730835 137.97241943 -122.02197266 136.93603516 C-120.61858384 134.27744143 -119.28913279 131.59072353 -118 128.875 C-117.4121875 127.66457031 -117.4121875 127.66457031 -116.8125 126.4296875 C-115.4659806 122.40307661 -115.56696063 119.13143343 -117.08569336 115.16333008 C-117.8302478 113.73089966 -117.8302478 113.73089966 -118.58984375 112.26953125 C-119.12673828 111.21958984 -119.66363281 110.16964844 -120.21679688 109.08789062 C-120.78462891 108.00701172 -121.35246094 106.92613281 -121.9375 105.8125 C-123.05223723 103.65309474 -124.16558469 101.49297131 -125.27734375 99.33203125 C-126.02359009 97.90467651 -126.02359009 97.90467651 -126.78491211 96.44848633 C-128.93672749 92.11242918 -129.32686329 88.82123346 -129 84 C-126.00096024 75.66933399 -119.3992209 72.52551184 -111.84765625 68.94335938 C-109.86094231 68.02049029 -107.87132549 67.10384561 -105.87890625 66.19335938 C-100.42887457 63.59371639 -96.60545848 61.73344023 -94 56 C-93.30716674 53.4004896 -92.77871022 51.01172237 -92.375 48.375 C-92.25439209 47.67713379 -92.13378418 46.97926758 -92.00952148 46.26025391 C-91.45447043 43.01311245 -90.96690879 39.76280219 -90.51171875 36.5 C-89.45687244 29.16193868 -88.01620005 24.79550249 -82.4375 19.625 C-74.31470201 15.78513186 -65.1085662 18.29066237 -56.63378906 20.01977539 C-50.70134332 21.1546152 -44.36953262 21.79256671 -38.86328125 18.86328125 C-38.35152344 18.35152344 -37.83976562 17.83976562 -37.3125 17.3125 C-36.3534375 16.38824219 -36.3534375 16.38824219 -35.375 15.4453125 C-34.59125 14.63835937 -33.8075 13.83140625 -33 13 C-31.23526225 11.19621004 -29.46730788 9.39580128 -27.6940918 7.6003418 C-26.45702092 6.3427253 -25.22898297 5.07614749 -24.01098633 3.80004883 C-16.66096334 -3.7478158 -9.34082423 -5.19159884 0 0 Z M-73 58 C-73.69609375 58.69609375 -74.3921875 59.3921875 -75.109375 60.109375 C-86.56050318 72.27065066 -94.50675911 88.42156707 -97 105 C-97.16435547 106.0828125 -97.16435547 106.0828125 -97.33203125 107.1875 C-100.26052074 129.67829927 -94.59228823 153.6239825 -80.67724609 171.72021484 C-77.65930213 175.36766859 -74.38434161 178.69301477 -71 182 C-69.83210938 183.19882812 -69.83210938 183.19882812 -68.640625 184.421875 C-53.13878876 199.50755456 -31.58094447 206.61692572 -10.25 207.3125 C15.53051076 206.73583068 37.79386188 195.94516128 55.65234375 177.58984375 C71.33420213 160.29022294 78.91688256 137.16526119 77.875 114 C76.31161264 89.1418765 64.67238273 68.71614209 46.75 51.875 C34.62012471 41.48394966 18.99223019 33.83818738 3 32 C1.15921875 31.7834375 1.15921875 31.7834375 -0.71875 31.5625 C-28.31581814 28.86739734 -53.48171641 38.48171641 -73 58 Z " fill="#030104" transform="translate(321,221)"/>
<path d="M0 0 C1.19215717 -0.00445668 1.19215717 -0.00445668 2.40839833 -0.0090034 C5.07445617 -0.01768256 7.74046907 -0.01919798 10.40653992 -0.02069092 C12.31693111 -0.02531962 14.22732138 -0.03034435 16.13771057 -0.03573608 C21.32992654 -0.04885644 26.52212957 -0.05530425 31.71435952 -0.05974674 C34.95809557 -0.06267785 38.20182809 -0.06678272 41.44556236 -0.07125092 C51.59408404 -0.08492443 61.74259764 -0.094592 71.89112788 -0.09845281 C83.60698363 -0.10293436 95.32272276 -0.12048743 107.03854305 -0.1494534 C116.09428691 -0.17106574 125.14999795 -0.18115684 134.20576733 -0.18249393 C139.61458296 -0.1835422 145.02328893 -0.18945504 150.43207741 -0.20731354 C155.52019994 -0.22378658 160.6081303 -0.2259534 165.69626999 -0.21717453 C167.56229225 -0.21640377 169.4283248 -0.22075204 171.29432106 -0.23063278 C173.84488017 -0.24334492 176.39475789 -0.23747963 178.9453125 -0.22705078 C180.04873732 -0.23913539 180.04873732 -0.23913539 181.17445356 -0.25146413 C186.29497968 -0.20261242 189.69850973 0.8061012 194.16313171 3.14044189 C197.27374415 6.49033222 198.42894785 9.15317682 198.66313171 13.64044189 C198.45324155 18.08561565 197.13385411 20.75711917 194.16313171 24.14044189 C190.44482819 26.74181579 186.41586393 26.42827405 182.05378723 26.41459656 C180.81769441 26.42245158 180.81769441 26.42245158 179.55663002 26.43046528 C176.79146318 26.44548388 174.02648109 26.44617084 171.26127625 26.44683838 C169.28029568 26.45445857 167.29931809 26.46288582 165.31834412 26.47206116 C159.93404662 26.49402579 154.54980593 26.50280761 149.16546869 26.5078876 C145.80246842 26.51152858 142.43948308 26.51776727 139.07648849 26.52488899 C127.3467366 26.54938946 115.61702898 26.56243687 103.88725281 26.565979 C92.94904177 26.56961565 82.01111109 26.59951883 71.07298577 26.64138359 C61.68519346 26.67605654 52.29749421 26.69152692 42.90963829 26.69222504 C37.30125078 26.69301882 31.69314884 26.70180399 26.08482742 26.7302227 C20.81028746 26.75635216 15.53627087 26.75863706 10.26169586 26.74256706 C8.32590725 26.74074855 6.39008889 26.74747946 4.45436478 26.76338577 C1.81110221 26.78378187 -0.83031801 26.77333343 -3.47355652 26.75517273 C-4.62220556 26.77497268 -4.62220556 26.77497268 -5.79405963 26.79517263 C-11.59003074 26.70423626 -13.9291013 25.1254921 -17.83686829 21.14044189 C-19.91084909 17.46383955 -20.34920025 14.3244863 -19.83686829 10.14044189 C-17.47664922 5.84147146 -14.97569214 2.22582885 -10.20167255 0.57500076 C-6.80736818 -0.0487401 -3.43863853 -0.00401385 0 0 Z " fill="#030104" transform="translate(148.8368682861328,84.85955810546875)"/>
<path d="M0 0 C0.82391302 -0.00382555 1.64782604 -0.00765109 2.49670613 -0.01159257 C5.26732837 -0.02194063 8.03774406 -0.01792699 10.80838013 -0.01396179 C12.79083448 -0.0183073 14.77328715 -0.0234899 16.7557373 -0.02944946 C22.14830423 -0.04286884 27.54080119 -0.04341481 32.93338156 -0.04088616 C37.4315107 -0.03981833 41.92962557 -0.04469506 46.42775166 -0.04949158 C57.03836257 -0.06059718 67.64893809 -0.06101842 78.259552 -0.05497742 C89.21302717 -0.04893716 100.1663739 -0.06124759 111.11982715 -0.08254749 C120.51692395 -0.10015037 129.91397981 -0.10616687 139.3110925 -0.10290974 C144.92664716 -0.10109447 150.54211023 -0.10375728 156.15764999 -0.11762428 C161.4386449 -0.13017644 166.71943933 -0.12828326 172.00043106 -0.11521339 C173.93985308 -0.11284227 175.87928909 -0.1156014 177.81869507 -0.12383652 C180.46416247 -0.13426053 183.10895181 -0.12623838 185.75439453 -0.11352539 C186.52375552 -0.12089968 187.29311651 -0.12827396 188.08579147 -0.13587171 C192.57780468 -0.09038967 195.41819762 0.51605135 199.00418091 3.26069641 C202.39279708 7.11670791 202.52402968 10.95149962 202.34793091 15.88960266 C201.83671427 19.41583563 200.70978406 20.9713399 198.00418091 23.26069641 C192.84068785 25.90016393 188.62005948 26.69468244 182.80654907 26.64164734 C181.61054699 26.6486673 181.61054699 26.6486673 180.39038324 26.65582907 C177.73348233 26.66774197 175.07710077 26.6583365 172.42019653 26.64888 C170.50936076 26.65294735 168.59852734 26.65829015 166.68769836 26.66481018 C161.50799718 26.6784701 156.32847555 26.67319055 151.14877129 26.66367292 C145.72414547 26.65606951 140.29953487 26.66312384 134.87490845 26.66783142 C125.76579025 26.67328697 116.65674505 26.66610258 107.54763794 26.65180969 C97.0212737 26.63548359 86.49508379 26.64077224 75.96872377 26.65728891 C66.92564545 26.67090945 57.88261955 26.67282065 48.83953428 26.6649729 C43.44084027 26.66029953 38.04222816 26.65966236 32.64353943 26.66958237 C27.56766423 26.67825797 22.49201348 26.67221915 17.41616249 26.6548996 C15.55498438 26.65093795 13.69378734 26.65206329 11.83261681 26.65868759 C9.28876176 26.66690591 6.74562241 26.65657828 4.20181274 26.64164734 C3.46824255 26.6483395 2.73467237 26.65503167 1.97887278 26.66192663 C-3.13115289 26.60389501 -6.53790793 25.58674547 -10.99581909 23.26069641 C-15.97988138 17.88315552 -15.97988138 17.88315552 -16.01535034 14.27241516 C-15.55480613 9.10215462 -14.86751444 6.01851837 -10.99581909 2.26069641 C-7.24943248 -0.23689466 -4.33690684 -0.02118131 0 0 Z " fill="#030104" transform="translate(144.99581909179688,149.7393035888672)"/>
<path d="M0 0 C5.44997472 4.54687705 10.51294316 9.36657475 15.5234375 14.390625 C16.31021881 15.17644958 17.09700012 15.96227417 17.90762329 16.77191162 C19.55764547 18.42125712 21.20642082 20.07185082 22.85400391 21.72363281 C25.3846076 24.25962807 27.92054962 26.79019779 30.45703125 29.3203125 C32.06282106 30.92676247 33.66830097 32.53352228 35.2734375 34.140625 C36.03377289 34.89893616 36.79410828 35.65724731 37.57748413 36.4385376 C38.27556183 37.13976746 38.97363953 37.84099731 39.69287109 38.56347656 C40.61717422 39.48897308 40.61717422 39.48897308 41.56015015 40.4331665 C43.7855413 42.85481998 44.00061379 44.0066289 44.3125 47.375 C44 51 44 51 42.34008789 53.13378906 C39.59423178 55.32359857 37.6833935 55.84106688 34.24609375 56.484375 C33.14458984 56.69707031 32.04308594 56.90976562 30.90820312 57.12890625 C29.76287109 57.33386719 28.61753906 57.53882813 27.4375 57.75 C26.28830078 57.97042969 25.13910156 58.19085938 23.95507812 58.41796875 C15.56834724 60 15.56834724 60 12 60 C11.86948242 60.79172607 11.73896484 61.58345215 11.60449219 62.39916992 C11.00207338 65.99812118 10.37630903 69.59263265 9.75 73.1875 C9.54503906 74.43337891 9.34007812 75.67925781 9.12890625 76.96289062 C8.91621094 78.16494141 8.70351563 79.36699219 8.484375 80.60546875 C8.20158691 82.26292114 8.20158691 82.26292114 7.91308594 83.95385742 C6.86361525 87.45499265 5.57411313 89.4191376 3 92 C-0.3816714 92.67633428 -1.81635456 92.90375089 -5 92 C-12.18612891 87.07773484 -18.14857867 79.98110464 -24.28125 73.81640625 C-25.34576772 72.75001915 -26.41050962 71.68385581 -27.47546387 70.61790466 C-30.25263833 67.83694593 -33.02679425 65.05299556 -35.80029297 62.26837158 C-38.64105638 59.4173052 -41.48471872 56.56913331 -44.328125 53.72070312 C-49.8882283 48.14993482 -55.44514018 42.57599681 -61 37 C-59.23049368 33.18697061 -58.03830399 31.57220429 -54 30 C-50.60210909 30.07743389 -47.33679502 30.69704078 -44 31.3125 C-42.10903087 31.61669302 -40.21708766 31.91489267 -38.32421875 32.20703125 C-36.95209229 32.41900146 -36.95209229 32.41900146 -35.55224609 32.63525391 C-27.11481776 33.84106201 -19.66240458 34.07946138 -12.15234375 29.63671875 C-2.74342005 22.48183848 -1.89205032 10.94050271 0 0 Z " fill="#030104" transform="translate(401,420)"/>
<path d="M0 0 C2.00105042 3.00157564 2.42422264 4.99539666 2.93579102 8.49682617 C4.20801835 17.1137692 5.91768615 24.11460789 13.15625 29.6484375 C21.61051881 34.61669287 30.16444226 33.65150732 39.51171875 32.13671875 C40.4872168 31.98332031 41.46271484 31.82992188 42.46777344 31.671875 C44.42003261 31.35345325 46.3678966 31.00654561 48.30957031 30.62890625 C55.04311887 29.49987075 55.04311887 29.49987075 57.99267578 31.04150391 C59.66015625 32.42578125 59.66015625 32.42578125 62 35 C60.41399113 38.85147006 57.95913066 41.28835762 55.03125 44.21166992 C54.52698486 44.7178334 54.02271973 45.22399689 53.50317383 45.74549866 C51.84029104 47.41207688 50.17033391 49.07136114 48.5 50.73046875 C47.34143222 51.88784411 46.1832342 53.04558972 45.02539062 54.20368958 C42.60073776 56.62677981 40.17276605 59.04647713 37.7421875 61.46362305 C34.62311931 64.56567332 31.51070292 67.67429424 28.4005127 70.78524303 C26.01081624 73.17466795 23.61852536 75.56148061 21.2253418 77.94741249 C20.07645671 79.09311094 18.92818022 80.23942001 17.78051758 81.386343 C16.17909593 82.98560266 14.57442858 84.58152957 12.96875 86.17651367 C12.05544922 87.08600266 11.14214844 87.99549164 10.20117188 88.93254089 C6.87102281 92.06039615 4.59885872 92.19628017 0.0703125 92.5234375 C-3.16179081 91.70626421 -4.14682973 89.69311129 -6 87 C-6.91308594 84.0456543 -6.91308594 84.0456543 -7.484375 80.82421875 C-7.69707031 79.66728516 -7.90976563 78.51035156 -8.12890625 77.31835938 C-8.33386719 76.12017578 -8.53882813 74.92199219 -8.75 73.6875 C-9.08064453 71.8612207 -9.08064453 71.8612207 -9.41796875 69.99804688 C-9.95864641 67.000812 -10.48545797 64.00181278 -11 61 C-11.82725586 60.84442627 -12.65451172 60.68885254 -13.50683594 60.52856445 C-16.58902797 59.93891454 -19.66694739 59.33119137 -22.74316406 58.71118164 C-24.07247401 58.44709853 -25.40322506 58.19016088 -26.73535156 57.94067383 C-28.65537411 57.57977273 -30.57000649 57.19056247 -32.484375 56.80078125 C-34.21252441 56.46300659 -34.21252441 56.46300659 -35.97558594 56.1184082 C-39.6376345 54.764207 -40.92081157 53.2581193 -43 50 C-43.6875 47.1875 -43.6875 47.1875 -43 44 C-38.51040455 37.92059579 -32.79065207 32.65624886 -27.44140625 27.34375 C-26.65225327 26.55601196 -25.86310028 25.76827393 -25.05003357 24.95666504 C-22.55654988 22.46872898 -20.05959216 19.98431376 -17.5625 17.5 C-15.85979413 15.8023159 -14.15731793 14.10440142 -12.45507812 12.40625 C-8.30603588 8.2681672 -4.15414424 4.13296065 0 0 Z " fill="#030104" transform="translate(220,420)"/>
</svg>
