<?xml version="1.0" encoding="UTF-8"?>
<svg version="1.1" xmlns="http://www.w3.org/2000/svg" width="200" height="200">
<path d="M0 0 C2.55535371 2.22955593 5.00056483 4.52808965 7.41796875 6.90625 C8.19140625 7.66679688 8.96484375 8.42734375 9.76171875 9.2109375 C25.24336375 25.38183382 32.10243583 46.99590133 31.66015625 69.18359375 C30.13430663 92.63737903 20.9790503 112.50620045 3.90234375 128.734375 C-14.04666507 144.42564686 -35.96510339 151.1815641 -59.58203125 149.90625 C-80.35119042 147.86289641 -97.65770034 139.58830281 -112.58203125 124.90625 C-113.35546875 124.14570313 -114.12890625 123.38515625 -114.92578125 122.6015625 C-130.03138146 106.82345269 -137.00930148 85.77024863 -136.88256836 64.11181641 C-136.28688563 41.56135166 -127.38425207 21.96923354 -111.58203125 5.90625 C-110.82148437 5.1328125 -110.0609375 4.359375 -109.27734375 3.5625 C-79.84365867 -24.61663457 -31.32181638 -25.39862871 0 0 Z M-104.97265625 18.359375 C-119.97863696 35.40698574 -123.97930437 54.73442563 -122.58203125 76.90625 C-120.67022869 93.81258241 -110.00168283 109.60646687 -97.51953125 120.59375 C-80.78130144 133.65144469 -62.50078619 137.59311803 -41.58203125 135.90625 C-23.4002947 133.41446336 -6.83439319 122.3034653 4.28125 108.0546875 C15.90496838 90.9272341 20.69517484 71.45438915 16.76171875 50.8671875 C11.9306129 32.41736086 1.09257204 15.70869858 -15.44042969 5.79150391 C-45.67777062 -11.26832919 -80.62973065 -6.61996696 -104.97265625 18.359375 Z " fill="#000000" transform="translate(152.58203125,34.09375)"/>
<path d="M0 0 C2.58455285 1.89533875 2.96275506 2.88826517 4 6 C4.27532207 10.80558998 4.3133554 15.61035715 4.35009766 20.4230957 C4.3666448 22.01081005 4.39391908 23.59845027 4.43212891 25.18579102 C4.48712645 27.48492731 4.50880316 29.78232426 4.5234375 32.08203125 C4.54610687 32.78536087 4.56877625 33.48869049 4.59213257 34.21333313 C4.57569964 38.07974683 3.98293685 40.48485538 1.59838867 43.44946289 C-1 46 -1 46 -3.09765625 46.7265625 C-6.57490255 46.54682412 -8.65169453 46.26792729 -11.4375 44.125 C-14.29918611 40.23310688 -14.19146602 37.01132632 -14.23828125 32.32421875 C-14.246353 31.56204544 -14.25442474 30.79987213 -14.26274109 30.01460266 C-14.27657975 28.39981357 -14.28730289 26.78499526 -14.29516602 25.17016602 C-14.31236192 22.70727667 -14.35624507 20.24573594 -14.40039062 17.78320312 C-14.41051935 16.21355153 -14.41903489 14.64388853 -14.42578125 13.07421875 C-14.44328934 12.34071701 -14.46079742 11.60721527 -14.47883606 10.85148621 C-14.46353699 7.22281501 -14.10100462 5.16158326 -12.16088867 2.05786133 C-8.22444145 -1.69090306 -5.0716771 -1.08678795 0 0 Z " fill="#000000" transform="translate(105,96)"/>
<path d="M0 0 C3.31270724 2.76058937 5.7775607 5.4841708 6.63671875 9.83203125 C6.91819797 14.90836346 5.67872169 17.99513072 2.25 21.875 C-2.09440676 25.00701418 -5.50873476 25.2467532 -10.6328125 24.453125 C-14.49770292 23.39776747 -16.71202421 21.25896772 -19.0625 18.125 C-20.48278915 13.47678097 -20.4647866 9.40668557 -18.4375 5.0625 C-13.62325467 -1.17818839 -7.52789898 -3.07959504 0 0 Z " fill="#000000" transform="translate(106.75,59.125)"/>
</svg>
