<?xml version="1.0" encoding="UTF-8"?>
<svg version="1.1" xmlns="http://www.w3.org/2000/svg" width="512" height="512">
<path d="M0 0 C1.9449234 -0.0129007 1.9449234 -0.0129007 3.92913818 -0.02606201 C5.3591152 -0.03049665 6.78909264 -0.03479506 8.21907043 -0.03897095 C9.73065883 -0.04687791 11.24224537 -0.05514723 12.75382996 -0.06375122 C17.71073115 -0.08990164 22.66764049 -0.10527144 27.62458801 -0.11953735 C29.33466916 -0.12489982 31.04475026 -0.13027734 32.75483131 -0.13566971 C39.87075539 -0.15728779 46.98667727 -0.17602277 54.10262585 -0.1872921 C64.28199258 -0.20352219 74.46097714 -0.23668929 84.64019984 -0.29369295 C91.80812584 -0.33245774 98.9759499 -0.35193248 106.14397794 -0.35721266 C110.42008504 -0.36085704 114.69578385 -0.37278066 118.97177696 -0.4053154 C122.99796772 -0.43551184 127.0235056 -0.44166714 131.04978561 -0.42993164 C132.52110422 -0.42971187 133.99245416 -0.43793644 135.46366692 -0.45558548 C146.91867391 -0.58543795 155.40861759 1.54401137 163.95906067 9.3946228 C167.18670146 12.89422851 169.70474617 16.84457853 172.26911926 20.84140015 C172.87143372 21.75462036 173.47374817 22.66784058 174.09431458 23.60873413 C177.11383263 28.21377685 180.02538763 32.86063727 182.80427551 37.61483765 C183.31579163 38.4737561 183.82730774 39.33267456 184.35432434 40.21762085 C185.31018963 41.83442489 186.24281857 43.46529125 187.14680481 45.11166382 C190.11799881 50.11874688 192.90148209 52.3532945 198.33415222 54.36508179 C205.41030711 56.08389858 212.76128972 55.6851616 219.99958801 55.63632202 C221.85673814 55.63851073 223.71388689 55.64251179 225.57102966 55.6481781 C229.5542785 55.65671206 233.53725723 55.65300335 237.52049255 55.63975525 C243.82505538 55.61934317 250.12934858 55.62942836 256.43391418 55.64401245 C269.816507 55.67071939 283.19901126 55.66404733 296.58161926 55.65390015 C311.03152616 55.6429437 325.48129304 55.63776824 339.93117619 55.67119455 C346.19234952 55.6845364 352.45311513 55.67865364 358.71426392 55.65782928 C362.6152996 55.64881894 366.51617944 55.65633913 370.417202 55.6682415 C372.21907967 55.67036507 374.02098085 55.66569353 375.82281876 55.65353584 C386.49511019 55.58561283 395.27137191 56.03852144 404.45661926 62.02890015 C412.27581454 69.84809543 413.9036559 79.65034132 413.98284948 90.3529349 C413.97615731 91.47746598 413.96946515 92.60199707 413.96257019 93.76060486 C413.96725016 94.98393003 413.97193013 96.2072552 413.97675192 97.46765083 C413.9865869 100.83274248 413.98313006 104.19732561 413.97379327 107.56238544 C413.96696882 111.2031979 413.97750068 114.84396788 413.98573303 118.48477173 C413.99903614 125.60475767 413.99620807 132.72464846 413.98749511 139.84463806 C413.98070598 145.63329483 413.97980714 151.42192503 413.98306656 157.21058464 C413.98352626 158.03604003 413.98398596 158.86149543 413.98445959 159.71196462 C413.98541881 161.38911344 413.98639145 163.06626225 413.98737736 164.74341106 C413.99592109 180.45025417 413.98611283 196.15704466 413.96997626 211.86387914 C413.95657151 225.3283363 413.95890444 238.79271586 413.97273254 252.25717163 C413.98880205 267.91130583 413.99509983 283.56539399 413.98589575 299.21953529 C413.98494015 300.89003399 413.98399704 302.5605327 413.98306656 304.23103142 C413.98260373 305.0528484 413.98214091 305.87466539 413.98166405 306.72138591 C413.97907846 312.50068074 413.9834358 318.27994624 413.99050522 324.05923653 C413.99893555 331.10562793 413.99660783 338.15191913 413.98066299 345.19829912 C413.97280122 348.79046815 413.96965272 352.38247035 413.97961044 355.97463799 C413.99025753 359.87457851 413.97750888 363.77424831 413.96257019 367.67417908 C413.96926236 368.80094089 413.97595452 369.9277027 413.98284948 371.0886088 C413.90469189 381.62514137 412.11222103 389.59763648 404.70271301 397.3062439 C398.64704997 402.58125057 391.44682644 403.27674675 383.66927814 403.28812122 C382.63943125 403.29164957 382.63943125 403.29164957 381.58877936 403.29524919 C379.28326088 403.30191752 376.97779903 403.30148163 374.67227173 403.30107117 C373.00453836 403.30437113 371.33680579 403.30809698 369.66907424 403.31221265 C365.08203852 403.32222547 360.49501588 403.32594828 355.90797079 403.32860196 C350.96234861 403.33250706 346.01673678 403.34208516 341.07112122 403.35081482 C329.12644879 403.37057194 317.18177553 403.38064384 305.23709086 403.38954261 C299.61236184 403.39392617 293.98763377 403.39929275 288.3629055 403.40453148 C269.66619086 403.42154192 250.96947681 403.43603671 232.27275562 403.44328022 C227.42152722 403.44519011 222.57029882 403.44711045 217.71907043 403.44906616 C215.91044788 403.44979177 215.91044788 403.44979177 214.06528749 403.45053204 C194.52725551 403.45883469 174.9892847 403.48417642 155.45127944 403.51664684 C135.39335152 403.54970971 115.3354547 403.56772823 95.27749938 403.57092446 C84.01510841 403.57309011 72.75280669 403.58184709 61.49044228 403.60738564 C51.90036566 403.62908193 42.31039998 403.63714824 32.72030161 403.62741885 C27.82792251 403.62287127 22.93577237 403.62478719 18.04342461 403.6441803 C13.5618626 403.66179159 9.08069693 403.66083075 4.59913083 403.64528301 C2.9806695 403.64290387 1.36218087 403.64724636 -0.25623872 403.65911166 C-10.14804902 403.72712192 -18.95683736 403.410811 -27.03947449 397.1109314 C-31.30814265 392.07114899 -33.98883888 387.6281889 -35.41838074 381.15390015 C-35.59041857 380.4079903 -35.76245641 379.66208044 -35.93970752 378.89356726 C-36.45686143 375.93365744 -36.54620971 373.1832587 -36.5498085 370.17860126 C-36.55364965 368.97304154 -36.55749079 367.76748181 -36.56144834 366.52538997 C-36.56066815 365.1910548 -36.55978938 363.85671969 -36.55882263 362.52238464 C-36.56140719 361.10213935 -36.5644206 359.68189478 -36.56782603 358.26165122 C-36.57588864 354.35870748 -36.57768519 350.45578214 -36.5784235 346.55283105 C-36.58027534 342.34341271 -36.58782335 338.13400389 -36.59455872 333.92459106 C-36.60813734 324.71996512 -36.61416603 315.51534353 -36.61856937 306.31070924 C-36.62133261 300.56250749 -36.62557011 294.81430741 -36.63007355 289.0661068 C-36.64226563 273.14877967 -36.65256505 257.23145389 -36.65594864 241.3141222 C-36.6561682 240.29548754 -36.65638777 239.27685289 -36.65661399 238.22735051 C-36.65683227 237.20628855 -36.65705055 236.18522659 -36.65727544 235.13322335 C-36.6577189 233.06418788 -36.65816547 230.99515241 -36.65861511 228.92611694 C-36.65883654 227.89980546 -36.65905797 226.87349397 -36.65928611 225.81608214 C-36.66323371 209.18799611 -36.68068686 192.55995391 -36.70397463 175.9318848 C-36.72769475 158.8571891 -36.74015079 141.78251539 -36.74131656 124.70780295 C-36.74223295 115.12216694 -36.74797625 105.53658805 -36.76613617 95.95096779 C-36.78154605 87.78821419 -36.78665237 79.62553535 -36.77839807 71.46276996 C-36.77449471 67.2995172 -36.77540578 63.13641496 -36.78945541 58.97318077 C-36.80221313 55.15781388 -36.80098054 51.34271034 -36.7888647 47.52734371 C-36.78598925 45.50192771 -36.79782928 43.47650708 -36.81028676 41.45112735 C-36.74437006 29.2617663 -34.09839568 18.61885689 -25.78947449 9.33358765 C-18.46981384 2.57436505 -9.79197679 0.04848282 0 0 Z M-0.85588074 100.1187439 C-1.37150574 100.76972046 -1.88713074 101.42069702 -2.41838074 102.09140015 C-2.95463074 102.73979858 -3.49088074 103.38819702 -4.04338074 104.0562439 C-7.69310961 109.62415414 -7.70923032 114.55810729 -7.6925354 121.0269928 C-7.69777208 122.02876314 -7.70300876 123.03053349 -7.70840412 124.06266052 C-7.72342003 127.42343625 -7.72410964 130.78405995 -7.72477722 134.14486694 C-7.7323977 136.55299639 -7.74082501 138.96112341 -7.75 141.36924744 C-7.77196461 147.91487124 -7.78076861 154.46045902 -7.78582644 161.00611091 C-7.78908617 165.09597044 -7.79561037 169.18582059 -7.80282784 173.27567482 C-7.82239206 184.60700902 -7.838797 195.93833452 -7.84170437 207.2696867 C-7.84189194 207.99452784 -7.84207951 208.71936898 -7.84227276 209.46617501 C-7.84263901 210.93550956 -7.8430027 212.40484412 -7.84336387 213.87417867 C-7.84354668 214.60352533 -7.8437295 215.33287199 -7.84391785 216.08432007 C-7.8440984 216.81456069 -7.84427894 217.54480131 -7.84446497 218.29717044 C-7.84800496 230.12392214 -7.87501714 241.95049158 -7.91241574 253.7771801 C-7.95053552 265.92954978 -7.96986212 278.08182912 -7.97016388 290.2342599 C-7.97074767 297.05334072 -7.97918853 303.87220415 -8.00816154 310.69122887 C-8.03529821 317.10742315 -8.036549 323.52330079 -8.02050591 329.93953514 C-8.01869105 332.29129474 -8.02538531 334.64307903 -8.04132462 336.99478531 C-8.0617984 340.21232694 -8.05122424 343.42836584 -8.03311157 346.64588928 C-8.05291152 348.03284068 -8.05291152 348.03284068 -8.07311147 349.44781131 C-7.98581559 356.26491398 -6.08886724 361.40706481 -2.41838074 367.15390015 C-0.22169764 369.43950139 -0.22169764 369.43950139 2.20661926 370.71640015 C2.96200989 371.17143921 3.71740051 371.62647827 4.49568176 372.0953064 C8.31466657 374.03340543 11.29201831 374.28113349 15.51943493 374.28812122 C17.39157769 374.29480799 17.39157769 374.29480799 19.30154151 374.30162984 C20.69423243 374.30154054 22.08692336 374.30135068 23.47961426 374.30107117 C24.9531814 374.30436977 26.42674764 374.30809532 27.90031272 374.31221265 C31.95985456 374.32224123 36.0193816 374.32595082 40.07893407 374.32860196 C44.45331475 374.33250246 48.82768369 374.34208097 53.20205688 374.35081482 C63.77119729 374.37058631 74.34033866 374.38064627 84.90949294 374.38954261 C89.88496302 374.39392435 94.86043203 374.39929145 99.83590126 374.40453148 C116.37250771 374.42154437 132.90911349 374.43603901 149.44572735 374.44328022 C153.73801359 374.44519016 158.03029983 374.44711048 162.32258606 374.44906616 C163.38943116 374.4495499 164.45627626 374.45003364 165.55545 374.45053204 C182.84137962 374.45883406 200.12724007 374.4841736 217.41313948 374.51664684 C235.15446918 374.54970432 252.8957637 374.56772779 270.63712436 374.57092446 C280.60057126 374.57309076 290.5639173 374.581857 300.52733421 374.60738564 C309.01190077 374.6290747 317.49634196 374.63715189 325.98093309 374.62741885 C330.31003767 374.62286896 334.63888351 374.62480033 338.96795273 374.6441803 C342.93262222 374.66177569 346.89684352 374.66084396 350.86151753 374.64528301 C352.29427139 374.6429014 353.727056 374.64725918 355.15976282 374.65911166 C364.24817235 374.72962903 370.71701697 374.34050909 377.82380676 368.22421265 C378.63204895 367.26128296 378.63204895 367.26128296 379.45661926 366.27890015 C380.01091614 365.64210327 380.56521301 365.0053064 381.13630676 364.34921265 C384.9105327 358.61646946 384.87304563 352.85237266 384.85577393 346.23648071 C384.8610106 345.24202305 384.86624728 344.24756538 384.87164265 343.22297263 C384.88663628 339.89294155 384.88734767 336.56306422 384.88801575 333.23300171 C384.89563766 330.84442892 384.90406521 328.45585859 384.91323853 326.06729126 C384.93518742 319.57957776 384.94400499 313.09189844 384.94906497 306.60415363 C384.95232629 302.54996824 384.95885138 298.49579229 384.96606636 294.44161224 C384.98562706 283.20717297 385.00203447 271.97274246 385.00494289 260.73828506 C385.00522425 259.66072887 385.00522425 259.66072887 385.00551129 258.56140386 C385.00587753 257.10522191 385.00624123 255.64903996 385.0066024 254.19285801 C385.00678521 253.47005074 385.00696802 252.74724348 385.00715637 252.00253296 C385.00733692 251.27883907 385.00751747 250.55514518 385.00770349 249.80952117 C385.01124423 238.08629678 385.03826264 226.36325617 385.07565426 214.6400955 C385.11377453 202.59165522 385.13310064 190.54330605 385.13340241 178.49480414 C385.13398613 171.73498224 385.14242288 164.97537962 385.17140007 158.21561432 C385.19757732 151.85599764 385.19978725 145.49681485 385.18374443 139.13716888 C385.1819297 136.8063716 385.18862271 134.47554939 385.20456314 132.14480591 C385.22503946 128.95577728 385.21446142 125.76826447 385.1963501 122.57925415 C385.21615005 121.20499877 385.21615005 121.20499877 385.23635 119.80298066 C385.14216646 112.51184406 382.97237889 106.16560504 378.20975298 100.53080583 C370.3892386 93.39552334 361.17594551 93.719986 351.24766541 93.76622009 C349.7877044 93.76204365 348.32774664 93.75656443 346.86779487 93.74990028 C342.86895362 93.73546749 338.87031885 93.73968358 334.8714664 93.74706709 C330.55370072 93.75180186 326.23597952 93.73928617 321.91822815 93.72904968 C313.46432384 93.7118622 305.01049387 93.71102159 296.55657662 93.71626259 C289.68422879 93.72030573 282.81190291 93.71885901 275.93955612 93.71351433 C274.96104939 93.71276591 273.98254266 93.71201748 272.97438421 93.71124638 C270.98647579 93.70971489 268.99856737 93.70817654 267.01065896 93.70663141 C248.37237391 93.69290647 229.73413085 93.69834395 211.09584676 93.70981663 C194.05083898 93.71974828 177.00593976 93.70680949 159.96094872 93.68288244 C142.45222373 93.6584899 124.9435493 93.64888399 107.43480766 93.65553516 C97.6077578 93.65902713 87.78079143 93.65679682 77.95375443 93.63928413 C69.58792839 93.62456022 61.22224462 93.62392918 52.85642137 93.64135505 C48.58982639 93.64986598 44.32348555 93.6520124 40.05690384 93.63670349 C36.14720666 93.62284904 32.23798114 93.62762898 28.32831119 93.64694273 C26.91788512 93.65070076 25.50742119 93.64778638 24.09702887 93.63733108 C14.87609129 93.57386436 6.55997936 94.14089514 -0.85588074 100.1187439 Z " fill="#000000" transform="translate(67.41838073730469,52.846099853515625)"/>
<path d="M0 0 C0.98768135 -0.00551503 0.98768135 -0.00551503 1.99531585 -0.01114148 C4.20609836 -0.02217195 6.41683386 -0.02602108 8.62763977 -0.02983093 C10.21114247 -0.03609613 11.79464369 -0.04274298 13.37814331 -0.04974365 C18.58279904 -0.0707819 23.78745505 -0.08114663 28.99214172 -0.09111023 C30.78460518 -0.09515804 32.57706849 -0.09927497 34.36953163 -0.10346031 C42.79184107 -0.1225124 51.21414174 -0.13674272 59.63646859 -0.14507228 C69.35387844 -0.15484159 79.07106032 -0.18115299 88.78838986 -0.22157317 C96.30189095 -0.25175205 103.81532677 -0.26654289 111.32888728 -0.26985329 C115.81504067 -0.272202 120.30095051 -0.28113884 124.7870388 -0.30631447 C129.01011365 -0.32963092 133.23278523 -0.33381418 137.45590782 -0.32355309 C139.00223127 -0.32305846 140.54857481 -0.3293573 142.09483719 -0.34310913 C151.37988217 -0.42103714 158.44360378 -0.24144166 165.78511047 6.07685852 C170.8313972 12.08894175 172.9968617 16.92119765 172.79682922 24.84248352 C172.14579483 30.75187261 169.81268569 35.98977048 165.54292297 40.14717102 C157.94738684 46.15609349 149.81810087 45.85367631 140.59346008 45.77827454 C138.98936168 45.78341984 137.38526894 45.79070572 135.78118896 45.79995728 C131.44639736 45.8184004 127.11222441 45.80557851 122.77745891 45.78586698 C118.23016242 45.76942311 113.68290335 45.7783012 109.1355896 45.78338623 C101.50198031 45.78790033 93.86861661 45.77207868 86.23506165 45.74409485 C77.42179836 45.71203453 68.60897759 45.71206536 59.79568285 45.72930962 C51.30018015 45.74519665 42.804839 45.7384279 34.30934334 45.7213726 C30.70145404 45.71451748 27.09369482 45.71551866 23.48580742 45.72291756 C19.23466971 45.73060288 14.98403311 45.71838145 10.73298073 45.69106865 C9.17700563 45.68420765 7.62098353 45.68406226 6.06501007 45.69128418 C-8.60779637 45.75151808 -8.60779637 45.75151808 -15.45707703 41.14717102 C-20.79519155 35.8090565 -23.56369788 30.3832978 -23.95707703 22.83467102 C-23.74901409 16.77587833 -22.13770004 11.98697875 -18.45707703 7.14717102 C-12.63614791 2.13158937 -7.67800495 0.0277716 0 0 Z " fill="#000000" transform="translate(228.4570770263672,303.8528289794922)"/>
<path d="M0 0 C0.98768135 -0.00551503 0.98768135 -0.00551503 1.99531585 -0.01114148 C4.20609836 -0.02217195 6.41683386 -0.02602108 8.62763977 -0.02983093 C10.21114247 -0.03609613 11.79464369 -0.04274298 13.37814331 -0.04974365 C18.58279904 -0.0707819 23.78745505 -0.08114663 28.99214172 -0.09111023 C30.78460518 -0.09515804 32.57706849 -0.09927497 34.36953163 -0.10346031 C42.79184107 -0.1225124 51.21414174 -0.13674272 59.63646859 -0.14507228 C69.35387844 -0.15484159 79.07106032 -0.18115299 88.78838986 -0.22157317 C96.30189095 -0.25175205 103.81532677 -0.26654289 111.32888728 -0.26985329 C115.81504067 -0.272202 120.30095051 -0.28113884 124.7870388 -0.30631447 C129.01011365 -0.32963092 133.23278523 -0.33381418 137.45590782 -0.32355309 C139.00223127 -0.32305846 140.54857481 -0.3293573 142.09483719 -0.34310913 C151.37988217 -0.42103714 158.44360378 -0.24144166 165.78511047 6.07685852 C170.8313972 12.08894175 172.9968617 16.92119765 172.79682922 24.84248352 C172.14579483 30.75187261 169.81268569 35.98977048 165.54292297 40.14717102 C157.94738684 46.15609349 149.81810087 45.85367631 140.59346008 45.77827454 C138.98936168 45.78341984 137.38526894 45.79070572 135.78118896 45.79995728 C131.44639736 45.8184004 127.11222441 45.80557851 122.77745891 45.78586698 C118.23016242 45.76942311 113.68290335 45.7783012 109.1355896 45.78338623 C101.50198031 45.78790033 93.86861661 45.77207868 86.23506165 45.74409485 C77.42179836 45.71203453 68.60897759 45.71206536 59.79568285 45.72930962 C51.30018015 45.74519665 42.804839 45.7384279 34.30934334 45.7213726 C30.70145404 45.71451748 27.09369482 45.71551866 23.48580742 45.72291756 C19.23466971 45.73060288 14.98403311 45.71838145 10.73298073 45.69106865 C9.17700563 45.68420765 7.62098353 45.68406226 6.06501007 45.69128418 C-8.60779637 45.75151808 -8.60779637 45.75151808 -15.45707703 41.14717102 C-20.79519155 35.8090565 -23.56369788 30.3832978 -23.95707703 22.83467102 C-23.74901409 16.77587833 -22.13770004 11.98697875 -18.45707703 7.14717102 C-12.63614791 2.13158937 -7.67800495 0.0277716 0 0 Z " fill="#000000" transform="translate(228.4570770263672,215.8528289794922)"/>
<path d="M0 0 C5.57379681 5.42516223 8.27334431 10.25974557 8.4375 18.1875 C8.29317945 25.69216879 6.49351195 31.48456225 1.1328125 36.87890625 C-4.56976304 41.4831258 -10.48947314 43.47949308 -17.890625 43.25 C-24.43322975 42.47458018 -30.69957961 40.17044763 -35 35 C-39.89196654 27.95970953 -41.04029897 21.45096802 -40 13 C-38.72809069 6.39282511 -35.17079602 2.16536346 -30 -2 C-20.25000522 -7.96938456 -8.75718844 -7.32897745 0 0 Z " fill="#000000" transform="translate(161,308)"/>
<path d="M0 0 C5.57379681 5.42516223 8.27334431 10.25974557 8.4375 18.1875 C8.29317945 25.69216879 6.49351195 31.48456225 1.1328125 36.87890625 C-4.56976304 41.4831258 -10.48947314 43.47949308 -17.890625 43.25 C-24.43322975 42.47458018 -30.69957961 40.17044763 -35 35 C-39.89196654 27.95970953 -41.04029897 21.45096802 -40 13 C-38.72809069 6.39282511 -35.17079602 2.16536346 -30 -2 C-20.25000522 -7.96938456 -8.75718844 -7.32897745 0 0 Z " fill="#000000" transform="translate(161,220)"/>
</svg>
