<?xml version="1.0" encoding="UTF-8"?>
<svg version="1.1" xmlns="http://www.w3.org/2000/svg" width="512" height="512">
<path d="M0 0 C2.5625 2.0625 2.5625 2.0625 4 5 C3.8143622 11.17802599 1.71939778 14.33870007 -2 18.9375 C-7.85310437 26.55073556 -12.59368465 34.47885418 -17 43 C-17.31952637 43.61311035 -17.63905273 44.2262207 -17.96826172 44.85791016 C-25.57145405 59.65492273 -30.3757947 75.59399706 -33 92 C-33.18433594 93.14339844 -33.36867188 94.28679687 -33.55859375 95.46484375 C-35.65436723 113.04195901 -35.32274843 132.83614596 -31 150 C-30.79600586 150.82999512 -30.59201172 151.65999023 -30.38183594 152.51513672 C-27.36091395 164.53066702 -23.46878797 175.88349802 -18 187 C-17.69336426 187.63099609 -17.38672852 188.26199219 -17.07080078 188.91210938 C-10.02077743 203.25336993 -0.81321222 215.26519704 9.703125 227.22265625 C26.18284387 246.01166593 37.26229889 265.42749787 49 288 C126.715 288.495 126.715 288.495 206 289 C206.33 287.35 206.66 285.7 207 284 C208.40488548 280.67217523 210.12604704 277.50564496 211.8125 274.3125 C212.29734863 273.39218994 212.78219727 272.47187988 213.28173828 271.52368164 C216.70732411 265.14302138 220.38224935 258.9789396 224.375 252.9375 C224.86202393 252.1947583 225.34904785 251.4520166 225.85083008 250.68676758 C228.48729343 246.8006197 230.96193914 243.55035422 235 241 C238.46758942 241.05978602 240.88826749 241.39034023 243.9375 243.0625 C245.68746311 246.2536092 245.54172754 249.49600251 245 253 C243.69413655 255.91644032 241.92241055 258.41064668 240.0625 261 C239.05072398 262.48167623 238.042997 263.96612443 237.0390625 265.453125 C236.53020508 266.20271484 236.02134766 266.95230469 235.49707031 267.72460938 C233.14106791 271.30548713 231.02462265 275.00775375 228.9375 278.75 C228.56826416 279.40484375 228.19902832 280.0596875 227.81860352 280.734375 C224.20012883 287.02007699 224.20012883 287.02007699 223 294 C224.46334812 295.16402691 225.92806258 296.32641407 227.40234375 297.4765625 C231.54850445 301.43011427 233.64478235 307.42733019 234.203125 313.04296875 C234.34680694 319.6164175 233.41197362 326.00582585 229.1875 331.25 C228.795625 331.8275 228.40375 332.405 228 333 C228.56076801 335.49004504 228.56076801 335.49004504 230 338 C234.10954204 346.0547024 235.46585237 352.99741342 232.6875 361.8125 C231.73708579 364.44898556 230.96499395 366.04345579 229.1875 368.25 C228.795625 368.8275 228.40375 369.405 228 370 C228.56076801 372.49004504 228.56076801 372.49004504 230 375 C233.6792153 382.21126199 235.50409821 388.56399289 233.28125 396.59765625 C230.25074101 404.69937988 226.13434324 409.98911329 218.42578125 414.03125 C214.60504384 415.55708394 211.09597691 415.80495348 207 416 C207.06960938 416.58265625 207.13921875 417.1653125 207.2109375 417.765625 C207.7881512 426.50628959 204.61635929 433.30463374 199.32421875 440.17578125 C194.19054762 445.68710175 187.45212532 449.66465011 179.81783104 450.13422108 C178.62607734 450.1406313 178.62607734 450.1406313 177.4102478 450.14717102 C176.0353418 450.15790398 176.0353418 450.15790398 174.63265991 450.16885376 C173.63417023 450.17154266 172.63568054 450.17423157 171.60693359 450.17700195 C170.54951965 450.18357315 169.49210571 450.19014435 168.40264893 450.19691467 C164.90124438 450.21663339 161.39988273 450.22830811 157.8984375 450.23828125 C156.70100544 450.24235678 155.50357338 450.2464323 154.2698555 450.25063133 C147.93006818 450.27148752 141.59030248 450.28579036 135.25048828 450.29516602 C128.71374566 450.30622014 122.17734439 450.34061037 115.64072227 450.38033772 C110.6048216 450.40652958 105.56900189 450.41486024 100.53303909 450.41844749 C98.12419966 450.42330796 95.71536372 450.43490641 93.30659103 450.45348549 C89.92726648 450.47792719 86.54882015 450.47690208 83.16943359 450.4699707 C81.68991714 450.48918579 81.68991714 450.48918579 80.18051147 450.50878906 C70.5734124 450.43732865 62.76568473 447.53067492 55.75390625 440.9296875 C52.98547227 437.88379354 50.91610264 434.63051027 49 431 C48.566875 430.21625 48.13375 429.4325 47.6875 428.625 C46.59593137 424.45719249 46.85031079 420.28277473 47 416 C45.72125 415.95875 44.4425 415.9175 43.125 415.875 C36.29803742 415.07941696 30.61421926 412.01847997 26.10546875 406.8125 C21.34174118 399.95087781 18.90305611 393.38378546 20 385 C21.50133151 379.77366673 23.5021443 374.82693736 26 370 C25.38125 369.154375 24.7625 368.30875 24.125 367.4375 C20.19331523 361.47026212 19.22816382 355.00499808 20 348 C20.98408471 343.80078922 22.08864181 340.1313412 24.8125 336.75 C25.4003125 335.88375 25.4003125 335.88375 26 335 C25.43923199 332.50995496 25.43923199 332.50995496 24 330 C20.3207847 322.78873801 18.49590179 316.43600711 20.71875 308.40234375 C23.27942172 301.556677 26.85520183 297.11497326 32 292 C23.36919158 274.98378577 23.36919158 274.98378577 13 259 C12.32839844 258.05640625 11.65679687 257.1128125 10.96484375 256.140625 C6.81335163 250.44456684 2.40183863 245.10018657 -2.25 239.8125 C-38.07351223 198.86759891 -53.29121084 153.04120804 -51 99 C-48.62675387 63.59358496 -32.75403909 27.96595696 -10 1 C-6.78133011 -0.60933494 -3.4810198 -0.59733476 0 0 Z M37.0625 310.25 C35.6247661 313.97119362 35.97330995 316.1670238 37 320 C39.18616191 323.35211493 40.18059812 324.72686604 44 326 C46.20800877 326.09844881 48.41892404 326.13503018 50.62911987 326.14044189 C51.30602501 326.14341302 51.98293015 326.14638414 52.68034756 326.1494453 C54.95341474 326.15813179 57.22642925 326.15964049 59.49951172 326.16113281 C61.12728996 326.16576098 62.75506712 326.17078564 64.38284302 326.17617798 C68.80847937 326.18930311 73.23410055 326.19574702 77.65975332 326.20018864 C80.42388838 326.20311885 83.18801928 326.20722354 85.95215225 326.21169281 C94.59817736 326.22536732 103.24419298 326.23503451 111.89022815 326.2388947 C121.87533718 326.24337711 131.86030942 326.26093369 141.84537685 326.2898953 C149.56095342 326.31149862 157.27649147 326.32159824 164.99209797 326.32293582 C169.60162621 326.32398471 174.21102587 326.32991047 178.82052231 326.34775543 C183.15598408 326.36421308 187.49122028 326.3664029 191.82670212 326.35761642 C193.41781721 326.35684484 195.00894432 326.36120474 196.60002899 326.37107468 C198.77259315 326.38376127 200.94435441 326.37793603 203.11691284 326.36749268 C204.3325485 326.36895924 205.54818417 326.3704258 206.80065727 326.3719368 C211.36582362 325.84121737 213.9575666 324.25092008 216.875 320.75 C218.4112222 316.99479018 218.10949563 314.88323469 217 311 C214.42339309 307.88094953 212.8455896 306.2818632 209 305 C206.81956073 304.90164502 204.6361867 304.86497391 202.45353699 304.85955811 C201.45148829 304.85510142 201.45148829 304.85510142 200.42919618 304.8505547 C198.18610188 304.84186883 195.94306096 304.84035956 193.69995117 304.83886719 C192.09349961 304.83423893 190.48704915 304.82921426 188.88059998 304.82382202 C184.51274588 304.81069669 180.14490716 304.8042528 175.77703643 304.79981136 C173.04840561 304.79688084 170.31977899 304.79277607 167.59115028 304.78830719 C159.05457999 304.77463188 150.5180193 304.7649654 141.98143882 304.7611053 C132.12595015 304.75662438 122.27060017 304.73907508 112.41515368 304.7101047 C104.79807443 304.68849101 97.1810342 304.67840118 89.56392461 304.67706418 C85.0141675 304.67601592 80.46454074 304.67010373 75.9148159 304.65224457 C71.63434215 304.6357693 67.35409683 304.6336057 63.07360268 304.64238358 C61.50387078 304.64315424 59.93412664 304.63880727 58.36442566 304.62892532 C56.21848349 304.61620963 54.07335081 304.6220798 51.92741394 304.63250732 C50.12746617 304.63030748 50.12746617 304.63030748 48.29115582 304.6280632 C43.55591607 305.16319736 40.18514484 306.62370277 37.0625 310.25 Z M36.5625 347.8125 C35.68674652 351.218208 36.10863235 353.61280292 37 357 C39.18991597 359.58297781 40.96831688 361.48415844 44 363 C47.78346536 363.16659094 51.56086491 363.29692968 55.34765625 363.34179688 C61.38926937 363.55369685 61.38926937 363.55369685 64.5390625 365.85546875 C66.54655734 368.8022994 66.58223973 370.50656159 66 374 C64.5546875 376.16015625 64.5546875 376.16015625 62 378 C58.05833782 378.6492937 54.06882248 378.45860202 50.0859375 378.40039062 C45.84612509 378.45705478 42.8827174 378.61497526 39.46875 381.2890625 C36.57786496 384.46354703 35.98382371 385.88150914 35.765625 390.00390625 C36.17478753 393.48860711 37.69130984 395.44828983 40 398 C43.97868983 400.05310246 47.34689757 400.25308157 51.78697205 400.26069641 C52.45671336 400.26452196 53.12645468 400.26834751 53.81649119 400.27228898 C56.05344125 400.28258117 58.29013282 400.27863412 60.52709961 400.2746582 C62.13384742 400.27900676 63.74059316 400.2841904 65.34733582 400.29014587 C69.70683108 400.3035313 74.06623963 400.30411507 78.42575145 400.30158257 C82.06644976 400.3005126 85.70713055 400.30539688 89.34782511 400.310188 C97.93721902 400.3212815 106.52656919 400.3217214 115.1159668 400.31567383 C123.97455432 400.30963261 132.83298308 400.32194916 141.69154352 400.3432439 C149.300178 400.3608609 156.90876194 400.36686112 164.51741606 400.36360615 C169.06042616 400.36179339 173.603323 400.36442889 178.14631462 400.37832069 C182.41862155 400.3908961 186.69068096 400.38895771 190.96298409 400.37590981 C192.52948719 400.37354388 194.0960077 400.3762793 195.66249084 400.38453293 C197.80396201 400.39500115 199.94460273 400.3869001 202.08604431 400.3742218 C203.88209563 400.37447341 203.88209563 400.37447341 205.71443081 400.37473011 C210.44542568 399.83514439 213.81724526 398.37352163 216.9375 394.75 C218.3752339 391.02880638 218.02669005 388.8329762 217 385 C215.17660948 382.29432374 213.92542564 380.46271282 211 379 C209.425343 378.8998977 207.84652739 378.86222701 206.26870728 378.85523987 C205.27045425 378.84834137 204.27220123 378.84144287 203.24369812 378.83433533 C201.59480339 378.83041527 201.59480339 378.83041527 199.91259766 378.82641602 C198.75805588 378.819729 197.6035141 378.81304199 196.41398621 378.80615234 C193.9001637 378.79207581 191.3863282 378.78019011 188.87248611 378.77020454 C184.89740205 378.75383765 180.92239005 378.73081432 176.94735718 378.70530701 C165.643016 378.6340745 154.33862904 378.57432428 143.03417969 378.52319336 C136.79271053 378.49488738 130.55132082 378.45950461 124.30993497 378.41653961 C121.00664885 378.39415848 117.70345193 378.37680428 114.40010452 378.36609077 C110.71535277 378.35396821 107.03086098 378.32983076 103.34619141 378.30297852 C102.25097672 378.30238937 101.15576202 378.30180023 100.02735901 378.30119324 C99.02346634 378.29147491 98.01957367 378.28175659 96.98526001 378.27174377 C96.1139979 378.26751184 95.24273579 378.2632799 94.34507179 378.25891972 C91.79022147 377.97683832 90.16639622 377.36804101 88 376 C87.25 374.1953125 87.25 374.1953125 87 372.125 C86.8453125 371.10792969 86.8453125 371.10792969 86.6875 370.0703125 C87 368 87 368 88.31436157 365.90075684 C92.64204584 362.83784436 97.11072264 363.46383848 102.28271484 363.51757812 C103.43433609 363.51366562 104.58595734 363.50975311 105.7724762 363.50572205 C108.27425972 363.49974147 110.77607796 363.50292701 113.27784348 363.5141449 C117.23703633 363.5313635 121.1954962 363.52392147 125.1546936 363.5098877 C134.27560056 363.48086443 143.39638043 363.49157487 152.5173111 363.50258636 C160.87270499 363.51226761 169.22787327 363.51350453 177.58322871 363.48270559 C182.14885032 363.46720434 186.71380861 363.48255141 191.27938843 363.50305176 C193.67242739 363.49734433 196.06546405 363.49052727 198.45849609 363.48242188 C199.54337814 363.49373642 200.62826019 363.50505096 201.74601746 363.51670837 C207.81478412 363.46754058 211.3816642 363.06189331 216 359 C218.10857453 356.34136255 218.00023614 355.01298793 217.9375 351.5625 C216.82940237 347.35172899 215.31363542 345.74789278 212 343 C209.13896636 341.56948318 206.69725728 341.8640867 203.49786377 341.85282898 C202.82251862 341.84915229 202.14717348 341.8454756 201.45136333 341.8416875 C199.17752889 341.83063231 196.90374013 341.82680372 194.62988281 341.82299805 C193.00387425 341.81673475 191.37786712 341.81008807 189.75186157 341.80308533 C185.32610344 341.78566253 180.90035612 341.77511995 176.47457218 341.7668798 C173.71026738 341.76173205 170.94596594 341.7556562 168.18166351 341.74936867 C159.53510159 341.73031249 150.88854824 341.71608261 142.24196935 341.7077567 C132.25681987 341.69798354 122.27189202 341.67166378 112.28682065 341.63125581 C104.57209879 341.60110573 96.8574405 341.58628886 89.14266086 341.58297569 C84.53359831 341.58062381 79.92477242 341.57164573 75.31577301 341.54651451 C70.97863282 341.52324828 66.64188534 341.51899463 62.30469894 341.52927589 C60.71399759 341.52977173 59.12327702 341.52343715 57.53263474 341.50971985 C55.35797655 341.4920176 53.18473027 341.49909715 51.0100708 341.51225281 C49.79405811 341.50986445 48.57804543 341.5074761 47.32518387 341.50501537 C42.73815079 342.18783802 39.4529746 344.16798855 36.5625 347.8125 Z M63 416 C62.96376513 423.49044587 62.96376513 423.49044587 67 429 C73.22399892 435.05578274 80.2430653 435.29838654 88.46435547 435.2746582 C89.38726379 435.27976913 90.31017212 435.28488007 91.26104736 435.29014587 C94.29649432 435.30398793 97.33171283 435.30308908 100.3671875 435.30078125 C102.48796675 435.30467125 104.60874523 435.30900655 106.72952271 435.31376648 C111.16947966 435.32121721 115.60935707 435.3209458 120.04931641 435.31567383 C125.72399304 435.3098821 131.39834297 435.32680881 137.07296562 435.3500185 C141.45173021 435.36478883 145.83041672 435.36562302 150.20920181 435.36250877 C152.30066703 435.36302037 154.3921368 435.36822757 156.48357773 435.37832069 C159.41488291 435.39073114 162.34555948 435.38386565 165.27685547 435.37231445 C166.13117157 435.37995819 166.98548767 435.38760193 167.86569214 435.39547729 C174.3532095 435.33929871 180.98790213 434.45005787 186.15625 430.24609375 C186.82140625 429.35083984 186.82140625 429.35083984 187.5 428.4375 C188.19609375 427.53837891 188.19609375 427.53837891 188.90625 426.62109375 C191.6493006 422.5555009 191 422.02878108 191 416 C148.76 416 106.52 416 63 416 Z " fill="#000000" transform="translate(129,62)"/>
<path d="M0 0 C1.10640839 -0.01210762 1.10640839 -0.01210762 2.23516846 -0.02445984 C3.79868216 -0.03829926 5.36222606 -0.04902206 6.92578125 -0.05688477 C9.30527945 -0.07405391 11.68337193 -0.11793262 14.0625 -0.16210938 C15.58332314 -0.17224058 17.10415807 -0.18075535 18.625 -0.1875 C19.33146667 -0.20500809 20.03793335 -0.22251617 20.76580811 -0.24055481 C27.3534059 -0.21195204 30.81132308 2.47147933 35.328125 6.98828125 C38.46864315 11.52458525 39.578125 15.66139683 39.578125 21.23828125 C40.54298828 21.45871094 40.54298828 21.45871094 41.52734375 21.68359375 C48.38151188 23.38491366 54.35792383 25.8912487 60.6328125 29.12890625 C63.93052553 30.37101567 65.28605822 30.3611992 68.578125 29.23828125 C69.82993848 28.59293641 71.06073362 27.90498883 72.265625 27.17578125 C76.92335609 24.76327025 81.42266237 24.34132772 86.578125 25.23828125 C90.99155023 27.1648544 94.07899238 29.36313687 97.46875 32.765625 C98.34273437 33.64025391 99.21671875 34.51488281 100.1171875 35.41601562 C101.01179687 36.32673828 101.90640625 37.23746094 102.828125 38.17578125 C103.73820313 39.08263672 104.64828125 39.98949219 105.5859375 40.92382812 C114.84995889 50.26344613 114.84995889 50.26344613 115.015625 58.48828125 C114.96631311 63.9927209 114.15114884 67.1814431 110.57421875 71.359375 C109.03615253 74.26059011 109.77120603 76.10487161 110.578125 79.23828125 C111.50811851 81.77610611 112.46812781 84.25141742 113.515625 86.73828125 C115.36485488 91.1926306 117.10945534 95.64070667 118.578125 100.23828125 C119.30257812 100.33625 120.02703125 100.43421875 120.7734375 100.53515625 C126.56221518 101.4304872 131.10010193 102.19713848 135.578125 106.23828125 C140.68802873 113.45808071 140.82188148 119.84038221 140.87329102 128.4152832 C140.89041514 130.40144033 140.93430076 132.38730812 140.97851562 134.37304688 C141.03117781 142.34934241 140.8733083 148.65284273 135.16552734 154.74633789 C129.68470255 159.65942435 124.58615658 160.4104486 117.578125 161.23828125 C116.28269397 164.2783581 114.99246523 167.32061677 113.703125 170.36328125 C113.33832031 171.21921875 112.97351563 172.07515625 112.59765625 172.95703125 C111.57370176 175.37728731 110.57376562 177.80627218 109.578125 180.23828125 C108.86849609 181.91470703 108.86849609 181.91470703 108.14453125 183.625 C107.28637672 186.21786237 107.28637672 186.21786237 108.66015625 188.25 C109.23121094 188.80300781 109.80226563 189.35601562 110.390625 189.92578125 C114.24334132 193.760865 114.7467029 196.65656679 114.828125 202.05078125 C114.86679687 203.57638672 114.86679687 203.57638672 114.90625 205.1328125 C114.02932278 213.43230224 107.96496802 218.3359832 102.328125 223.92578125 C101.49410156 224.77978516 100.66007813 225.63378906 99.80078125 226.51367188 C94.69601702 231.61442923 90.64115735 235.31608607 83.390625 236.63671875 C77.0883051 236.55522323 72.17869007 234.9495059 67.703125 230.36328125 C64.95090791 228.01816997 64.95090791 228.01816997 62.73046875 228.375 C60.26093179 229.17356055 57.95190776 230.18622606 55.578125 231.23828125 C54.28760144 231.73941589 52.99441139 232.23371556 51.69921875 232.72265625 C50.325126 233.24766569 48.95142894 233.77371191 47.578125 234.30078125 C46.906604 234.55770752 46.23508301 234.81463379 45.54321289 235.0793457 C41.87782436 236.33831993 41.87782436 236.33831993 39.578125 239.23828125 C39.3647283 241.11271173 39.15728885 242.98782267 38.953125 244.86328125 C37.93963634 251.20330054 35.65481044 255.27053111 30.578125 259.23828125 C24.65377493 262.18110003 18.31057956 261.57330444 11.85864258 261.55395508 C9.65070185 261.55079567 7.44410346 261.57427788 5.23632812 261.59960938 C3.82031418 261.60188285 2.40429666 261.60258564 0.98828125 261.6015625 C-0.28909912 261.60454346 -1.56647949 261.60752441 -2.88256836 261.6105957 C-9.07544968 260.95914064 -13.30101488 258.17660379 -17.17578125 253.4765625 C-19.20758956 249.82695071 -19.51093551 246.02255218 -19.90234375 241.91015625 C-20.5084902 238.79283163 -20.82605197 238.02290958 -23.421875 236.23828125 C-26.02176531 235.12404255 -28.57459478 234.11864078 -31.234375 233.17578125 C-31.93369141 232.91990234 -32.63300781 232.66402344 -33.35351562 232.40039062 C-34.72847353 231.90005515 -36.10687494 231.40906792 -37.48876953 230.92822266 C-39.25061384 230.29940578 -40.98496652 229.59487347 -42.71484375 228.8828125 C-45.36796866 227.9310764 -45.36796866 227.9310764 -47.328125 229.28515625 C-47.8540625 229.8471875 -48.38 230.40921875 -48.921875 230.98828125 C-53.13111823 235.02252312 -56.4708989 236.04947711 -62.296875 236.61328125 C-71.87029534 236.27008741 -78.03261582 229.21581064 -84.296875 222.80078125 C-85.15023437 221.95451172 -86.00359375 221.10824219 -86.8828125 220.23632812 C-92.53617363 214.52482325 -95.68939702 210.63908555 -95.796875 202.36328125 C-95.69142892 195.76884568 -94.10838119 192.21262739 -89.671875 187.30078125 C-89.259375 186.95015625 -88.846875 186.59953125 -88.421875 186.23828125 C-89.84425 181.75916766 -91.54671565 177.48395985 -93.421875 173.17578125 C-96.39285763 166.33509374 -96.39285763 166.33509374 -97.28125 163.37109375 C-98.23666721 160.99425211 -98.23666721 160.99425211 -100.8125 160.453125 C-101.75609375 160.36160156 -102.6996875 160.27007812 -103.671875 160.17578125 C-109.86347324 159.30167326 -113.39429738 157.43482367 -117.671875 152.80078125 C-122.40697207 145.86724625 -121.75438062 138.99356445 -121.734375 130.86328125 C-121.75048828 129.56132812 -121.76660156 128.259375 -121.78320312 126.91796875 C-121.78743543 118.62264181 -121.57708674 112.99042494 -116.109375 106.48828125 C-110.69895722 101.95862915 -106.21163314 100.99192347 -99.421875 100.23828125 C-98.09999505 96.86688101 -96.79107255 93.49059184 -95.484375 90.11328125 C-95.11119141 89.16195312 -94.73800781 88.210625 -94.35351562 87.23046875 C-91.59920549 80.42183743 -91.59920549 80.42183743 -90.421875 73.23828125 C-91.360479 71.30225242 -91.360479 71.30225242 -92.859375 69.67578125 C-96.51022983 64.38306154 -96.5374444 58.4393084 -95.421875 52.23828125 C-92.2096501 46.03955537 -86.88588817 41.371214 -81.984375 36.48828125 C-81.13810547 35.62589844 -80.29183594 34.76351562 -79.41992188 33.875 C-78.59685547 33.05128906 -77.77378906 32.22757813 -76.92578125 31.37890625 C-76.18142822 30.63157227 -75.4370752 29.88423828 -74.67016602 29.11425781 C-70.11380025 25.31242107 -65.72942247 24.81220904 -59.984375 24.90625 C-56.62614188 25.34138691 -54.18335831 26.52580002 -51.30859375 28.265625 C-48.84992357 29.5331382 -47.21271115 30.07225417 -44.421875 30.23828125 C-41.69579313 29.23574956 -39.20694577 28.18913411 -36.609375 26.92578125 C-31.25331562 24.36819883 -26.23130904 22.51986972 -20.421875 21.23828125 C-20.39609375 20.65820312 -20.3703125 20.078125 -20.34375 19.48046875 C-19.89207159 13.25962517 -18.58508965 9.22351451 -13.89453125 4.796875 C-9.09015534 0.67380423 -6.15446256 0.06362289 0 0 Z M-2.984375 17.015625 C-4.38594289 19.18272317 -5.05002733 20.65456776 -5.484375 23.17578125 C-6.47760425 27.6083746 -7.25356863 30.85844993 -11.3125 33.44140625 C-17.02936735 36.4323501 -23.05426646 38.77277275 -29.06738281 41.09545898 C-31.98370128 42.22644229 -34.74423604 43.41110599 -37.50390625 44.890625 C-42.3758323 47.14071133 -47.16539386 46.90151511 -52.421875 46.23828125 C-55.10033099 45.17835749 -57.02033777 43.88933809 -59.421875 42.23828125 C-61.32957065 41.30128532 -61.32957065 41.30128532 -63.421875 41.23828125 C-66.58101699 43.3173237 -69.09304752 46.16861705 -71.734375 48.86328125 C-72.48783203 49.58902344 -73.24128906 50.31476563 -74.01757812 51.0625 C-75.0781543 52.12791016 -75.0781543 52.12791016 -76.16015625 53.21484375 C-76.81024658 53.86533691 -77.46033691 54.51583008 -78.13012695 55.18603516 C-79.67784935 57.19911898 -79.67784935 57.19911898 -79.25073242 59.81396484 C-78.48326356 62.43453742 -78.48326356 62.43453742 -76.421875 65.05078125 C-73.59106623 69.56238272 -72.87941672 73.39637595 -73.86328125 78.55078125 C-75.4640859 84.25879324 -77.75414144 89.70816664 -80.109375 95.140625 C-80.99703776 97.23561478 -81.82933998 99.35478891 -82.609375 101.4921875 C-86.3006716 111.38826226 -86.3006716 111.38826226 -91.3828125 114.421875 C-94.60067615 115.71025336 -97.86132232 116.30411541 -101.28515625 116.78125 C-103.6253418 117.0793709 -103.6253418 117.0793709 -105.421875 119.23828125 C-105.73268837 121.63004603 -105.73268837 121.63004603 -105.6875 124.39453125 C-105.69007813 125.41675781 -105.69265625 126.43898438 -105.6953125 127.4921875 C-105.68757812 128.56339844 -105.67984375 129.63460937 -105.671875 130.73828125 C-105.67960938 131.80949219 -105.68734375 132.88070312 -105.6953125 133.984375 C-105.69273437 135.00660156 -105.69015625 136.02882813 -105.6875 137.08203125 C-105.68524414 138.02240234 -105.68298828 138.96277344 -105.68066406 139.93164062 C-105.64286216 142.43320092 -105.64286216 142.43320092 -103.421875 144.23828125 C-101.68418199 144.59604158 -99.93032501 144.87786035 -98.171875 145.11328125 C-93.35986956 145.93729787 -90.13133429 146.89072042 -86.421875 150.23828125 C-83.32639428 155.21226943 -81.02210875 160.30471647 -78.859375 165.73828125 C-78.27521033 167.1863879 -77.69057983 168.63430674 -77.10546875 170.08203125 C-76.82638672 170.77868896 -76.54730469 171.47534668 -76.25976562 172.19311523 C-75.45211938 174.16445924 -74.59668589 176.10852803 -73.73046875 178.0546875 C-71.31671431 183.92695576 -72.20209255 188.75132512 -74.484375 194.45703125 C-75.421875 196.23828125 -75.421875 196.23828125 -77.671875 198.42578125 C-78.249375 199.02390625 -78.826875 199.62203125 -79.421875 200.23828125 C-79.1166988 204.28196965 -77.91744612 206.22995622 -75.04296875 209.0078125 C-74.36943359 209.66845703 -73.69589844 210.32910156 -73.00195312 211.00976562 C-72.29490234 211.68330078 -71.58785156 212.35683594 -70.859375 213.05078125 C-70.14845703 213.74365234 -69.43753906 214.43652344 -68.70507812 215.15039062 C-66.95269188 216.85573295 -65.19166031 218.55103301 -63.421875 220.23828125 C-60.48342642 219.14126045 -58.39474605 218.21657809 -55.921875 216.23828125 C-51.71006636 212.86883434 -48.06671435 211.75261315 -42.6171875 211.93359375 C-39.35761034 212.38599058 -36.61152435 213.51702169 -33.609375 214.83984375 C-31.00035646 215.98448669 -28.38868559 217.04257109 -25.734375 218.07421875 C-24.02587801 218.75349477 -22.31754626 219.43318652 -20.609375 220.11328125 C-19.7846167 220.42845703 -18.9598584 220.74363281 -18.11010742 221.06835938 C-12.69953914 223.26986672 -9.69100713 225.35373812 -6.421875 230.23828125 C-5.56640625 232.328125 -5.56640625 232.328125 -5.234375 234.17578125 C-4.49642865 237.99526181 -3.51611767 241.40843191 -2.421875 245.23828125 C5.498125 245.23828125 13.418125 245.23828125 21.578125 245.23828125 C23.16252316 239.70184686 23.16252316 239.70184686 24.390625 234.17578125 C25.47774904 230.00444606 27.12199672 226.88747209 30.578125 224.23828125 C33.32484498 222.82465989 36.09514416 221.69965766 38.984375 220.60546875 C41.65564088 219.5892263 44.2485147 218.52437857 46.859375 217.37109375 C47.59897461 217.04939209 48.33857422 216.72769043 49.10058594 216.39624023 C50.55066575 215.7644924 51.99689744 215.12381239 53.43847656 214.47290039 C59.0028246 212.09994713 63.97262951 211.11417984 69.93359375 212.97265625 C70.53816406 213.3078125 71.14273438 213.64296875 71.765625 213.98828125 C72.41917969 214.34921875 73.07273437 214.71015625 73.74609375 215.08203125 C76.18602473 216.62194505 78.40814062 218.33954492 80.578125 220.23828125 C85.20086682 218.14382897 88.30954187 214.94904669 91.890625 211.42578125 C92.54869141 210.80896484 93.20675781 210.19214844 93.88476562 209.55664062 C97.60844287 206.13588415 97.60844287 206.13588415 98.6171875 201.44140625 C97.31644037 198.68343113 95.48744533 196.61046711 93.578125 194.23828125 C91.45024807 189.34416431 90.41121764 184.49368757 92.265625 179.3203125 C92.9238016 177.85861197 93.60568478 176.40746639 94.3046875 174.96484375 C96.44916226 170.37329963 98.19246488 165.61306319 100.015625 160.88671875 C102.73956997 154.52630724 105.10734872 149.41484415 111.578125 146.23828125 C114.44186639 145.60234434 117.28010547 145.11971009 120.1875 144.73046875 C122.7521985 144.43086813 122.7521985 144.43086813 124.578125 142.23828125 C124.88893837 139.84651647 124.88893837 139.84651647 124.84375 137.08203125 C124.84632813 136.05980469 124.84890625 135.03757812 124.8515625 133.984375 C124.84382812 132.91316406 124.83609375 131.84195313 124.828125 130.73828125 C124.83585938 129.66707031 124.84359375 128.59585938 124.8515625 127.4921875 C124.84898437 126.46996094 124.84640625 125.44773437 124.84375 124.39453125 C124.84036621 122.98397461 124.84036621 122.98397461 124.83691406 121.54492188 C124.79911216 119.04336158 124.79911216 119.04336158 122.578125 117.23828125 C119.6126929 116.44107498 116.62816694 115.83493586 113.62109375 115.21484375 C109.11643414 113.76918919 106.43980406 111.82760041 104.171875 107.64453125 C103.8109375 106.68546875 103.45 105.72640625 103.078125 104.73828125 C102.66820312 103.67867188 102.25828125 102.6190625 101.8359375 101.52734375 C101.42085937 100.44195312 101.00578125 99.3565625 100.578125 98.23828125 C99.70809816 96.19449039 98.83321053 94.1527609 97.953125 92.11328125 C97.15155617 90.1589801 96.35939384 88.20078591 95.578125 86.23828125 C95.23136719 85.37203125 94.88460937 84.50578125 94.52734375 83.61328125 C92.33562889 77.43399706 92.25599138 72.43063758 94.578125 66.23828125 C95.88850434 64.55350781 97.21635578 62.88179582 98.578125 61.23828125 C98.11851562 55.25666298 94.33225741 52.36524317 90.265625 48.36328125 C89.24952148 47.31140625 89.24952148 47.31140625 88.21289062 46.23828125 C87.22385742 45.25214844 87.22385742 45.25214844 86.21484375 44.24609375 C85.31318481 43.34334717 85.31318481 43.34334717 84.39331055 42.42236328 C82.652001 41.01949831 82.652001 41.01949831 80.53833008 41.42138672 C78.30970577 42.27117276 78.30970577 42.27117276 75.578125 44.30078125 C70.35184861 47.26050409 65.40788693 47.30632924 59.578125 46.23828125 C54.06062095 44.33751431 48.84135833 41.74340114 43.60302734 39.19091797 C41.04378878 37.98689713 38.42541287 37.008941 35.765625 36.05078125 C31.08712756 34.22286573 28.15734337 31.64866718 25.390625 27.42578125 C24.37277658 24.68542012 23.79550432 21.91023309 23.23828125 19.04296875 C22.6381681 16.85158479 22.6381681 16.85158479 19.578125 15.23828125 C16.28084981 14.78492972 12.9658159 14.86798782 9.640625 14.86328125 C8.73376953 14.83878906 7.82691406 14.81429687 6.89257812 14.7890625 C1.62339625 14.72207954 1.62339625 14.72207954 -2.984375 17.015625 Z " fill="#000000" transform="translate(246.421875,45.76171875)"/>
<path d="M0 0 C1.15453709 0.94782958 2.30107034 1.90553394 3.4375 2.875 C4.00210938 3.2978125 4.56671875 3.720625 5.1484375 4.15625 C19.21204081 15.10167882 28.11586392 33.92871799 30.98828125 51.18359375 C33.60450151 72.68209938 28.74222414 92.94127162 16.4375 110.875 C2.93934864 127.82765455 -14.93737429 139.12757383 -36.65869141 142.16845703 C-58.29208881 144.60942619 -79.53005426 139.39961563 -96.8125 125.9375 C-98.40829319 124.59803895 -99.99271381 123.24484785 -101.5625 121.875 C-102.17738281 121.35550781 -102.79226562 120.83601562 -103.42578125 120.30078125 C-117.55743768 107.40361435 -125.78142921 86.77542747 -126.765625 68 C-127.16479917 47.21030604 -121.81000171 29.03695208 -108.5625 12.875 C-107.75039062 11.81925781 -107.75039062 11.81925781 -106.921875 10.7421875 C-81.23634889 -21.05300258 -31.75654291 -23.2514187 0 0 Z M-94.9765625 21.6328125 C-106.5021709 36.39638446 -112.12153509 52.01708236 -110.5625 70.875 C-109.32136068 79.29358069 -106.77642176 86.49647296 -102.5625 93.875 C-101.84449219 93.14152344 -101.12648437 92.40804687 -100.38671875 91.65234375 C-93.19803254 84.58297184 -85.37795288 78.75122665 -76.5625 73.875 C-76.85125 73.25496094 -77.14 72.63492188 -77.4375 71.99609375 C-81.38271019 62.58512362 -82.47230488 52.37303413 -79.125 42.5625 C-75.03013405 33.89527489 -68.4542639 27.34128084 -59.5625 23.875 C-51.15871407 21.14236582 -39.65994221 21.75637222 -31.73828125 25.55078125 C-23.01239629 30.86150836 -17.30452726 38.013323 -14.5625 47.875 C-13.65195578 57.3086616 -14.55806351 65.27618772 -18.5625 73.875 C-17.63308594 74.45507812 -16.70367187 75.03515625 -15.74609375 75.6328125 C-7.17732371 81.02809265 0.37041043 86.5937562 7.4375 93.875 C15.93625295 78.99378436 17.62423618 63.20002392 13.27416992 46.70922852 C8.56710575 30.39630304 -1.21870245 17.50552955 -15.890625 8.9296875 C-42.12706544 -5.25098807 -74.77463667 -1.44576296 -94.9765625 21.6328125 Z M-62.375 44.9375 C-65.94987006 49.73803979 -66.22024447 54.07745228 -65.5625 59.875 C-63.9070724 65.46954748 -61.07336721 68.79324983 -56.24609375 71.96484375 C-52.15835725 74.17468738 -48.09447888 74.44149736 -43.5625 73.875 C-37.35665526 71.98130473 -33.62315059 68.5365468 -30.5625 62.875 C-29.03645962 58.29687885 -28.63867324 53.53562107 -30.24609375 48.90625 C-32.82467183 44.02728069 -36.59764094 40.35742953 -41.5625 37.875 C-50.7098139 37.0396914 -56.15739907 37.89439838 -62.375 44.9375 Z M-76.90625 92.1328125 C-82.7614505 96.36037923 -87.86173126 100.56998659 -91.5625 106.875 C-88.93711233 113.97804272 -79.76395578 118.31184788 -73.234375 121.5 C-56.83921869 128.15310691 -40.562529 128.42630278 -24.046875 122.3984375 C-16.40317458 119.05646086 -9.76878519 114.41033544 -3.5625 108.875 C-6.93367221 98.45501317 -16.88135877 92.43208908 -26.09375 87.52734375 C-31.20024412 85.45058294 -34.10832388 86.07408156 -39.1171875 88.08984375 C-45.61928911 90.17757925 -52.3856022 89.47955522 -58.6875 87.125 C-65.94304476 84.73724521 -70.96376294 88.03047058 -76.90625 92.1328125 Z " fill="#000000" transform="translate(303.5625,111.125)"/>
<path d="M0 0 C0.780905 -0.00705963 1.56181 -0.01411926 2.36637878 -0.02139282 C34.51382822 -0.24611782 34.51382822 -0.24611782 48.57421875 3.203125 C49.86223389 3.50114014 49.86223389 3.50114014 51.17626953 3.80517578 C64.33504773 6.89414517 76.4781607 11.19482255 88.57421875 17.203125 C89.66259033 17.73510498 89.66259033 17.73510498 90.77294922 18.27783203 C116.58899797 30.99422387 138.54808373 50.04031756 155.57421875 73.203125 C155.99558105 73.76950684 156.41694336 74.33588867 156.85107422 74.91943359 C183.87274123 111.69042521 193.91232844 160.27923289 187.44726562 205.14306641 C182.23843553 235.83941706 170.21450536 266.53307155 149.57421875 290.203125 C146.05597364 292.54862174 144.71646181 292.78303903 140.57421875 292.203125 C137.41754435 289.86993088 135.79457039 288.44215142 135.09765625 284.5234375 C135.7805941 279.76526394 138.19863649 276.95859432 141.07421875 273.203125 C142.18790616 271.6815324 143.29725164 270.15675281 144.40234375 268.62890625 C144.94697266 267.87689941 145.49160156 267.12489258 146.05273438 266.35009766 C168.7805266 234.2788196 176.41890109 190.47658208 170.44921875 152.078125 C169.91599866 149.09498366 169.27657924 146.15076726 168.57421875 143.203125 C168.27620361 141.94846436 168.27620361 141.94846436 167.97216797 140.66845703 C157.8868188 99.684922 132.65043339 63.42413731 96.64697266 41.00292969 C59.73904928 18.72757698 16.33786496 10.52055229 -25.92797852 20.46850586 C-49.70415341 26.46405081 -70.76352674 36.40978662 -89.92578125 51.76953125 C-93.00966168 53.53794393 -94.9214997 53.58028882 -98.42578125 53.203125 C-101.30078125 51.703125 -101.30078125 51.703125 -103.42578125 49.203125 C-104.24613911 45.6873056 -104.50321469 44.47755959 -103.42578125 41.203125 C-86.19599676 17.36941735 -43.93471104 5.71414381 -16.42578125 1.203125 C-10.91478254 0.41496585 -5.56319314 0.033556 0 0 Z " fill="#000000" transform="translate(245.42578125,-0.203125)"/>
</svg>
